<svg width="41" height="41" viewBox="0 0 41 41" fill="none" xmlns="http://www.w3.org/2000/svg">
<path d="M0 0H41V41H0V0ZM37.6403 31.2215C37.3419 29.3514 36.1233 27.7798 32.5107 26.3129C31.2534 25.7229 29.8571 25.3152 29.438 24.3677C29.2831 23.8028 29.2603 23.4976 29.3606 23.1627C29.6179 22.0603 30.9254 21.73 31.9504 22.0352C32.6178 22.2402 33.2328 22.7527 33.6177 23.575C35.383 22.4202 35.383 22.4202 36.6153 21.6526C36.1529 20.9373 35.9228 20.6253 35.6153 20.3178C34.5379 19.1151 33.1029 18.5001 30.7728 18.5525L29.5701 18.7051C28.4153 18.9876 27.3128 19.6048 26.6477 20.4226C24.7002 22.6274 25.2628 26.4701 27.6203 28.0622C29.9505 29.8047 33.3626 30.1874 33.7977 31.8274C34.2077 33.8273 32.3126 34.4673 30.4379 34.2373C29.0553 33.9275 28.2854 33.2373 27.4404 31.9549L24.3153 33.7498C24.6729 34.5676 25.0829 34.9274 25.6979 35.6449C28.6704 38.6425 36.1028 38.4899 37.4353 33.9275C37.4831 33.7749 37.8453 32.7248 37.5628 31.1099L37.6403 31.2215ZM22.2949 18.8441H18.4546C18.4546 22.1537 18.4386 25.4451 18.4386 28.7615C18.4386 30.8662 18.5457 32.7977 18.2017 33.3922C17.6391 34.5698 16.1836 34.4195 15.5253 34.2099C14.8488 33.8774 14.5049 33.415 14.1063 32.7499C13.9992 32.5722 13.9195 32.4173 13.8899 32.4173L10.7739 34.3398C11.2955 35.4172 12.0563 36.3419 13.038 36.9296C14.4981 37.802 16.4592 38.0844 18.5138 37.6243C19.8531 37.2371 21.0079 36.4422 21.607 35.2122C22.4817 33.6246 22.2949 31.6748 22.2881 29.4972C22.3063 25.9872 22.2881 22.4748 22.2881 18.9397L22.2949 18.8441Z" fill="#A5A3B7"/>
</svg>
