<svg width="21" height="21" viewBox="0 0 21 21" fill="none" xmlns="http://www.w3.org/2000/svg">
<path d="M1.75 10.5C1.75 15.3326 5.66738 19.25 10.5 19.25C15.3326 19.25 19.25 15.3326 19.25 10.5C19.25 5.66738 15.3326 1.75 10.5 1.75C5.66738 1.75 1.75 5.66738 1.75 10.5Z" stroke="#EBEAF3" stroke-width="1.5" stroke-linecap="round" stroke-linejoin="round"/>
<path d="M11.375 1.79395C11.375 1.79395 14 5.25019 14 10.5002C14 15.7502 11.375 19.2064 11.375 19.2064M9.62502 19.2064C9.62502 19.2064 7.00002 15.7502 7.00002 10.5002C7.00002 5.25019 9.62502 1.79395 9.62502 1.79395M2.30127 13.5627H18.6988M2.30127 7.43769H18.6988" stroke="#ebeaf3" stroke-width="1.5" stroke-linecap="round" stroke-linejoin="round"/>
</svg>
