<svg width="41" height="41" viewBox="0 0 41 41" fill="none" xmlns="http://www.w3.org/2000/svg">
<g clip-path="url(#clip0_7_134)">
<path d="M12.3 12.3L13.407 11.4991C13.2377 11.2652 12.9986 11.091 12.7241 11.0014C12.4496 10.9118 12.1538 10.9114 11.879 11.0004C11.6043 11.0893 11.3648 11.263 11.1949 11.4965C11.025 11.7299 10.9335 12.0112 10.9333 12.3H12.3ZM20.5 38.2667C15.788 38.2667 11.269 36.3948 7.93707 33.0629C4.60517 29.731 2.73333 25.212 2.73333 20.5H0C0 25.9369 2.15982 31.1512 6.00431 34.9957C9.84881 38.8402 15.0631 41 20.5 41V38.2667ZM38.2667 20.5C38.2667 22.8332 37.8071 25.1435 36.9143 27.299C36.0214 29.4546 34.7127 31.4131 33.0629 33.0629C31.4131 34.7127 29.4546 36.0214 27.299 36.9143C25.1435 37.8071 22.8332 38.2667 20.5 38.2667V41C25.9369 41 31.1512 38.8402 34.9957 34.9957C38.8402 31.1512 41 25.9369 41 20.5H38.2667ZM20.5 2.73333C22.8332 2.73333 25.1435 3.19288 27.299 4.08574C29.4546 4.9786 31.4131 6.28728 33.0629 7.93707C34.7127 9.58686 36.0214 11.5454 36.9143 13.701C37.8071 15.8565 38.2667 18.1668 38.2667 20.5H41C41 15.0631 38.8402 9.84881 34.9957 6.00431C31.1512 2.15982 25.9369 0 20.5 0V2.73333ZM20.5 0C15.0631 0 9.84881 2.15982 6.00431 6.00431C2.15982 9.84881 0 15.0631 0 20.5H2.73333C2.73333 15.788 4.60517 11.269 7.93707 7.93707C11.269 4.60517 15.788 2.73333 20.5 2.73333V0ZM13.6667 32.8V12.3H10.9333V32.8H13.6667ZM11.193 13.1009L28.9597 37.7009L31.1737 36.0991L13.407 11.4991L11.193 13.1009ZM27.3333 10.9333V27.3333H30.0667V10.9333H27.3333Z" fill="#A5A3B7"/>
</g>
<defs>
<clipPath id="clip0_7_134">
<rect width="41" height="41" fill="white"/>
</clipPath>
</defs>
</svg>
