<svg width="37" height="41" viewBox="0 0 37 41" fill="none" xmlns="http://www.w3.org/2000/svg">
<path d="M16.6344 17.2979C15.9983 17.66 15.4854 18.1999 15.1605 18.8493C14.8356 19.4987 14.7134 20.2285 14.8093 20.9464C14.9051 21.6643 15.2148 22.3381 15.6991 22.8825C16.1834 23.4269 16.8206 23.8176 17.5301 24.005C18.2396 24.1925 18.9895 24.1684 19.6851 23.9357C20.3807 23.703 20.9907 23.2723 21.4379 22.6979C21.8852 22.1235 22.1496 21.4312 22.1978 20.7087C22.2459 19.9862 22.0757 19.2658 21.7086 18.6386C21.4647 18.2221 21.1401 17.857 20.7531 17.5642C20.3661 17.2714 19.9244 17.0566 19.4532 16.9321C18.982 16.8076 18.4905 16.7758 18.0069 16.8386C17.5232 16.9014 17.0568 17.0574 16.6344 17.2979ZM33.2814 21.2708C33.0374 20.9961 32.7802 20.7207 32.5099 20.4447C32.6984 20.2479 32.8814 20.0517 33.0589 19.8563C36.3966 16.1581 37.8066 12.4476 36.5006 10.2193C35.2487 8.0811 31.5242 7.44355 26.8597 8.33735C26.4008 8.42618 25.944 8.52595 25.4892 8.63665C25.4019 8.34145 25.3097 8.04762 25.2126 7.75515C23.6301 3.0545 21.0743 -0.00204897 18.4623 1.03055e-06C15.9585 1.03055e-06 13.5379 2.86385 11.9928 7.2939C11.8403 7.73123 11.6995 8.1713 11.5706 8.6141C11.267 8.5403 10.962 8.47197 10.6556 8.4091C5.73532 7.41485 1.77372 8.07085 0.469829 10.3033C-0.779997 12.4415 0.525978 15.9408 3.64742 19.4709C3.95797 19.8194 4.27684 20.1611 4.60403 20.4959C4.21723 20.8854 3.8533 21.277 3.51225 21.6665C0.465671 25.1474 -0.76544 28.5872 0.482307 30.7172C1.77164 32.9189 5.67709 33.6385 10.4331 32.716C10.8185 32.6408 11.2018 32.556 11.5831 32.4618C11.7217 32.9414 11.8749 33.4177 12.0427 33.8906C13.5816 38.2304 15.9876 41 18.4831 41C21.0618 41 23.6446 38.0213 25.2106 33.4991C25.3353 33.1423 25.4497 32.7713 25.562 32.39C26.0542 32.5103 26.5498 32.6169 27.0489 32.7098C31.6302 33.5647 35.2674 32.8943 36.5131 30.7623C37.8003 28.5586 36.4715 24.8645 33.2814 21.2708ZM2.00872 11.1766C2.81143 9.8031 6.04934 9.266 10.2979 10.127C10.5696 10.1817 10.8462 10.2432 11.1277 10.3115C10.7124 12.1203 10.4192 13.9543 10.2501 15.8014C8.71796 16.8634 7.25713 18.0221 5.87673 19.27C5.57311 18.9598 5.27712 18.642 4.98875 18.3168C2.31234 15.2951 1.25591 12.4661 2.00872 11.1766ZM10.092 22.919C9.03145 22.1257 8.04365 21.3139 7.14735 20.498C8.04157 19.6862 9.02937 18.8785 10.09 18.0872C10.0511 18.8921 10.0324 19.6978 10.0338 20.5041C10.0338 21.3104 10.0532 22.1154 10.092 22.919ZM10.092 30.996C8.2895 31.3917 6.42847 31.4571 4.60195 31.1887C4.10122 31.1501 3.61384 31.0107 3.16994 30.779C2.72605 30.5473 2.33507 30.2284 2.02119 29.8419C1.26215 28.5504 2.25203 25.787 4.85774 22.8104C5.18493 22.4373 5.5232 22.0737 5.87257 21.7198C7.25359 22.9754 8.71735 24.1396 10.2542 25.2048C10.425 27.0752 10.721 28.9324 11.1401 30.7644C10.7935 30.8505 10.4435 30.9284 10.09 30.9981L10.092 30.996ZM24.857 14.5161C24.1597 14.0828 23.454 13.6639 22.74 13.2594C22.0357 12.8603 21.3238 12.4756 20.6043 12.1053C21.7872 11.6127 22.9942 11.1783 24.2207 10.8035C24.496 12.0297 24.7084 13.2688 24.857 14.5161ZM13.6751 7.86175C14.9978 4.06925 16.9567 1.75275 18.4665 1.75275C20.074 1.7507 22.1619 4.24965 23.5282 8.3066C23.6169 8.57173 23.7001 8.83823 23.7777 9.1061C21.9842 9.65405 20.2293 10.3183 18.5247 11.0946C16.8258 10.3088 15.0749 9.63694 13.2842 9.08355C13.4048 8.67355 13.5351 8.26628 13.6751 7.86175ZM12.8433 10.781C14.0642 11.1598 15.265 11.599 16.441 12.0971C14.9825 12.8378 13.5628 13.6448 12.182 14.5181C12.3484 13.2102 12.5709 11.9577 12.8433 10.781ZM12.1841 26.484C12.8731 26.9199 13.5726 27.3388 14.2824 27.7406C15.0061 28.1506 15.7388 28.5442 16.4805 28.9214C15.296 29.4367 14.0855 29.8917 12.8537 30.2847C12.5675 29.03 12.344 27.7623 12.1841 26.486V26.484ZM23.5303 32.9333C22.977 34.6697 22.1043 36.2909 20.9557 37.7159C20.6722 38.1244 20.3066 38.4713 19.8817 38.735C19.4568 38.9987 18.9815 39.1738 18.4852 39.2493C16.9692 39.2493 15.0373 37.025 13.723 33.3125C13.5677 32.8738 13.4249 32.431 13.2946 31.9841C15.0938 31.412 16.8516 30.7202 18.5559 29.9136C20.275 30.6961 22.0444 31.3666 23.8526 31.9205C23.7528 32.2608 23.6453 32.5984 23.5303 32.9333ZM24.2831 30.219C23.0406 29.8366 21.8177 29.3946 20.6189 28.8948C21.3245 28.5299 22.035 28.1438 22.7504 27.7365C23.4852 27.3183 24.2006 26.8899 24.8965 26.4512C24.7576 27.7166 24.5528 28.9743 24.2831 30.219ZM25.2126 20.4959C25.2126 21.7409 25.1731 22.9846 25.0941 24.2269C24.0689 24.9116 22.9875 25.5799 21.8624 26.2195C20.7395 26.8571 19.6311 27.4434 18.5414 27.9743C17.3948 27.4331 16.2705 26.8495 15.1683 26.2236C14.073 25.6018 13.0027 24.9396 11.9574 24.2372C11.8604 22.9935 11.8118 21.7485 11.8118 20.5021C11.8118 19.257 11.859 18.0127 11.9533 16.769C14.0438 15.362 16.2391 14.1128 18.5206 13.0319C19.6519 13.5744 20.763 14.1559 21.8541 14.7764C22.9494 15.3969 24.0238 16.0522 25.0775 16.7424C25.1676 17.9915 25.2126 19.2427 25.2126 20.4959ZM27.2007 10.0553C31.1977 9.2906 34.2089 9.80515 34.9638 11.0946C35.7686 12.4681 34.6165 15.498 31.7321 18.6919C31.5727 18.8682 31.4077 19.0452 31.2372 19.2229C29.8324 17.971 28.3427 16.8148 26.7786 15.7625C26.621 13.9358 26.3397 12.1216 25.9363 10.332C26.3661 10.2281 26.7876 10.1359 27.2007 10.0553ZM26.9304 18.0195C27.9859 18.7789 29.0007 19.5918 29.9707 20.4549C29.0052 21.3318 27.9938 22.1584 26.9408 22.9313C26.9727 22.1195 26.9886 21.3077 26.9886 20.4959C26.9886 19.6704 26.9692 18.845 26.9304 18.0195ZM34.9763 29.887C34.2193 31.1805 31.2996 31.7197 27.3796 30.9899C26.9304 30.9065 26.4701 30.8067 25.9987 30.6906C26.3923 28.8778 26.6612 27.0409 26.8035 25.1924C28.3649 24.1224 29.8498 22.9477 31.2476 21.6767C31.493 21.9268 31.7259 22.1755 31.9463 22.4229C33.1963 23.7627 34.1853 25.3179 34.864 27.0108C35.0812 27.4572 35.2032 27.9427 35.2225 28.4374C35.2418 28.9321 35.158 29.4254 34.9763 29.887Z" fill="#A5A3B7"/>
</svg>
