<svg width="55" height="41" viewBox="0 0 55 41" fill="none" xmlns="http://www.w3.org/2000/svg">
<path d="M25.9394 30.9965C25.8878 31.0888 25.9136 31.0478 25.9394 30.9965V30.9965ZM47.3492 23.5659C45.6208 23.5653 43.9153 23.9598 42.3648 24.7189C41.8578 23.7025 41.3335 22.8143 41.2476 22.1481C41.1445 21.3709 41.0327 20.9096 41.1531 19.9872C41.2734 19.0648 41.8148 17.758 41.8062 17.6641C41.7976 17.5701 41.6859 17.1004 40.5773 17.0918C39.4687 17.0833 38.5148 17.3054 38.4039 17.5957C38.2081 18.1264 38.0558 18.672 37.9484 19.2271C37.7508 20.2264 35.7321 23.7965 34.5891 25.6584C34.2109 24.9324 33.893 24.2919 33.8242 23.7794C33.7211 23.0022 33.6094 22.541 33.7297 21.6185C33.85 20.6961 34.3914 19.3893 34.3828 19.2954C34.3742 19.2014 34.2625 18.7317 33.1548 18.7232C32.047 18.7146 31.0922 18.9367 30.9805 19.2271C30.8688 19.5175 30.7485 20.2007 30.525 20.8584C30.3016 21.5161 27.6126 27.4606 26.9088 29.0065C26.5478 29.7923 26.2384 30.4243 26.015 30.8513C25.9806 30.9197 25.9548 30.9624 25.9377 30.9965C25.9634 30.9538 25.9806 30.9111 25.9806 30.9282C25.7916 31.2955 25.6798 31.5004 25.6798 31.5004V31.509C25.5337 31.7823 25.3705 32.03 25.2931 32.03C25.2416 32.03 25.1298 31.3125 25.3189 30.3303C25.7228 28.2634 26.6767 25.052 26.6681 24.941C26.6595 24.8812 26.8486 24.326 26.0408 24.0271C25.2587 23.7452 24.9751 24.215 24.9064 24.215C24.8376 24.215 24.7861 24.3858 24.7861 24.3858C24.7861 24.3858 25.6541 20.7644 23.1197 20.7644C21.5385 20.7644 19.3384 22.4897 18.2573 24.0527C17.5784 24.42 16.1089 25.2143 14.562 26.0598C13.969 26.3844 13.3588 26.7175 12.783 27.0335C12.7401 26.9908 12.7057 26.9481 12.6627 26.9054C9.58699 23.6428 3.90818 21.3367 4.1488 16.9552C4.23474 15.358 4.79334 11.1644 15.069 6.07398C23.491 1.90598 30.2243 3.05047 31.3836 5.59568C33.0508 9.22559 27.7836 15.9815 19.0376 16.9552C15.7041 17.3224 13.9518 16.0413 13.5135 15.563C13.058 15.0591 12.9893 15.0335 12.8174 15.1274C12.5338 15.2811 12.7143 15.7253 12.8174 15.99C13.0752 16.6648 14.1495 17.8605 15.9791 18.4584C17.5861 18.9794 21.4946 19.2698 26.2204 17.4506C31.5297 15.4178 35.6625 9.75513 34.4507 5.0149C33.2166 0.197788 25.1797 -1.38229 17.5801 1.29957C13.052 2.89673 8.15526 5.40778 4.63264 8.67897C0.448293 12.5737 -0.221168 15.9644 0.053835 17.3822C1.03267 22.4129 8.00916 25.6926 10.8013 28.1182C10.6638 28.1951 10.5349 28.2634 10.4146 28.3317C9.01464 29.0236 3.69591 31.7908 2.36472 34.7119C0.860798 38.0257 2.61394 40.4001 3.76466 40.7247C7.35603 41.7154 11.0333 39.9304 13.0091 37.0008C14.9848 34.0713 14.745 30.2449 13.8341 28.5026C13.8255 28.4769 13.8083 28.4599 13.7997 28.4342C14.1606 28.2207 14.5302 28.0072 14.8997 27.7937C15.6121 27.3752 16.3082 26.9908 16.9184 26.6577C16.5747 27.5801 16.3254 28.6905 16.1965 30.2962C16.0418 32.1752 16.8239 34.6094 17.8379 35.5659C18.2848 35.9845 18.8254 35.993 19.1605 35.993C20.3465 35.993 20.8793 35.0193 21.4714 33.8578C22.2019 32.44 22.8464 30.7915 22.8464 30.7915C22.8464 30.7915 22.0386 35.2499 24.2472 35.2499C25.0542 35.2499 25.862 34.2165 26.2238 33.6869V33.6955C26.2238 33.6955 26.241 33.6613 26.284 33.593C26.3699 33.4649 26.4129 33.388 26.4129 33.388V33.3624C26.7395 32.8072 27.4527 31.5346 28.5261 29.4335C29.9183 26.7175 31.2495 23.3267 31.2495 23.3267C31.3781 24.0721 31.5561 24.8082 31.7823 25.5303C32.023 26.3417 32.53 27.23 32.9339 28.0926C32.6073 28.5367 32.4097 28.793 32.4097 28.793C32.4103 28.7995 32.4134 28.8056 32.4183 28.81C32.1605 29.1517 31.8683 29.5189 31.5675 29.8777C30.4683 31.1759 29.1612 32.662 28.9893 33.0891C28.7831 33.593 28.8346 33.9688 29.23 34.2592C29.5221 34.4812 30.0378 34.5154 30.5783 34.4727C31.5666 34.4044 32.2627 34.1652 32.5979 34.0115C33.2158 33.7913 33.7997 33.4866 34.333 33.1061C35.4072 32.3204 36.0603 31.193 36.0002 29.7068C35.9658 28.8869 35.6994 28.067 35.3728 27.2983C35.4674 27.1616 35.5705 27.0164 35.665 26.8712C37.3658 24.4029 38.6806 21.6937 38.6806 21.6937C38.8092 22.4391 38.9872 23.1752 39.2134 23.8973C39.4197 24.5891 39.8227 25.3492 40.1923 26.0923C38.5947 27.382 37.6064 28.8767 37.2626 29.8589C36.6267 31.6781 37.1251 32.498 38.0619 32.6859C38.483 32.7713 39.0845 32.5749 39.5314 32.387C40.1951 32.1673 40.8209 31.8476 41.3868 31.439C42.461 30.6532 43.5 29.5514 43.4313 28.0567C43.4055 27.382 43.2164 26.7073 42.9672 26.0581C44.3165 25.4944 46.0687 25.187 48.3031 25.4432C53.0882 25.9984 54.0249 28.9706 53.8445 30.2091C53.664 31.4475 52.6585 32.1393 52.3233 32.3443C51.9882 32.5493 51.8851 32.6261 51.9108 32.7799C51.9538 33.0019 52.1085 32.9934 52.3921 32.9422C52.7874 32.8738 54.9006 31.9343 54.9952 29.6368C55.1327 26.7329 52.3233 23.5386 47.3467 23.5642L47.3492 23.5659ZM10.4661 35.9247C8.88573 37.6414 6.66852 38.2905 5.71546 37.7439C4.6928 37.1529 5.09671 34.6264 7.04665 32.797C8.2326 31.6866 9.76145 30.6617 10.7755 30.0297C11.0076 29.893 11.3427 29.6881 11.7552 29.4404C11.824 29.3977 11.8583 29.3806 11.8583 29.3806C11.9357 29.3293 12.0216 29.2866 12.1076 29.2354C12.82 31.8318 12.1334 34.1208 10.4661 35.923V35.9247ZM22.0128 28.1182C21.4628 29.4592 20.3035 32.8755 19.5988 32.6962C18.9973 32.5424 18.6277 29.9374 19.4785 27.3752C19.9082 26.0855 20.8192 24.5481 21.3606 23.9502C22.2277 22.9851 23.1816 22.6776 23.405 23.062C23.7058 23.5659 22.3566 27.2812 22.0128 28.1182ZM31.552 32.6449C31.32 32.7645 31.1051 32.8414 31.002 32.7816C30.9247 32.7389 31.0965 32.5766 31.0965 32.5766C31.0965 32.5766 32.2911 31.304 32.7637 30.7232C33.0387 30.3816 33.3567 29.9802 33.6996 29.536C33.6996 29.5787 33.7082 29.6214 33.7082 29.6727C33.697 31.2015 32.2198 32.235 31.5494 32.6449H31.552ZM38.9066 30.9794C38.7348 30.8599 38.7605 30.4584 39.3363 29.2115C39.5598 28.7246 40.0745 27.9047 40.9692 27.1189C41.0704 27.4164 41.1255 27.7274 41.1324 28.0414C41.1238 29.9631 39.7402 30.6805 38.9075 30.9794H38.9066Z" fill="#A5A3B7"/>
</svg>
