<svg width="15" height="12" viewBox="0 0 15 12" fill="none" xmlns="http://www.w3.org/2000/svg">
<path d="M13.125 6.87187C13.62 6.86522 14.0927 6.68208 14.4428 6.36133C14.7929 6.04058 14.9927 5.60747 15 5.15391V1.71797H10.3125V1.04367C10.3119 0.906053 10.2817 0.769891 10.2236 0.642962C10.1656 0.516033 10.0808 0.400823 9.97419 0.303909C9.86755 0.206996 9.74112 0.130277 9.60212 0.0781341C9.46311 0.0259907 9.31426 -0.000556335 9.16406 8.8378e-06H5.83594C5.68574 -0.000556335 5.53689 0.0259907 5.39788 0.0781341C5.25888 0.130277 5.13245 0.206996 5.02581 0.303909C4.91917 0.400823 4.8344 0.516033 4.77635 0.642962C4.71831 0.769891 4.68811 0.906053 4.6875 1.04367V1.71797H0V5.15391C0.00737439 5.61115 0.210491 6.04744 0.565589 6.36878C0.920687 6.69012 1.39934 6.8708 1.89844 6.87187H3.77344V5.97853H4.71094V8.42663C4.71094 8.54054 4.66155 8.64978 4.57364 8.73033C4.48574 8.81087 4.36651 8.85612 4.24219 8.85612C4.11787 8.85612 3.99864 8.81087 3.91073 8.73033C3.82282 8.64978 3.77344 8.54054 3.77344 8.42663V7.75662H1.90312C1.1995 7.75558 0.521334 7.5153 0 7.08232V11.141C0 11.3688 0.098772 11.5873 0.274587 11.7484C0.450403 11.9095 0.68886 12 0.9375 12H14.0625C14.3111 12 14.5496 11.9095 14.7254 11.7484C14.9012 11.5873 15 11.3688 15 11.141V7.08232C14.4801 7.51745 13.801 7.75806 13.0969 7.75662H12.1875V6.87187H13.125ZM5.625 1.04367C5.62742 0.993918 5.6507 0.946937 5.69 0.912529C5.7293 0.878122 5.78158 0.858942 5.83594 0.858992H9.16406C9.21842 0.858942 9.2707 0.878122 9.31 0.912529C9.3493 0.946937 9.37258 0.993918 9.375 1.04367V1.71797H5.625V1.04367ZM11.25 8.42663C11.25 8.54054 11.2006 8.64978 11.1127 8.73033C11.0248 8.81087 10.9056 8.85612 10.7812 8.85612C10.6569 8.85612 10.5377 8.81087 10.4498 8.73033C10.3619 8.64978 10.3125 8.54054 10.3125 8.42663V7.75662H5.625V6.87187H10.3125V5.97853H11.25V8.42663Z" fill="#A5A3B7"/>
</svg>
